{"title":"Crossing the Bridge (1992) Stephen Baldwin (DVDRip, opt.subs)","uid":5599667,"size":728435049,"categoryP":"video","categoryS":"movies","magnet":"?xt=urn:btih:85dba7dccfb8a33f9d9b64bef9260050106029dd&amp;dn=Crossing+the+Bridge+%281992%29+Stephen+Baldwin+%28DVDRip%2C+opt.subs%29&amp;tr=udp%3A%2F%2Ftracker.openbittorrent.com%3A80&amp;tr=udp%3A%2F%2Fopen.demonii.com%3A1337&amp;tr=udp%3A%2F%2Ftracker.coppersurfer.tk%3A6969&amp;tr=udp%3A%2F%2Fexodus.desync.com%3A6969","seeders":2,"leechers":0,"uploader":"Kuthumi","files":-1,"time":1275231409,"description":" &lt;a href=&quot;http://www.imdb.com/title/tt0104030/&quot; rel=&quot;nofollow&quot; target=&quot;_NEW&quot;&gt;http://www.imdb.com/title/tt0104030/&lt;/a&gt;\n\nOptional subtitles in separate idx/sub files (Work in Windows Media Player etc., \nsee enclosed Note): English for the hearing impaired (No more subs on the DVD).\n\nWith Stephen Baldwin (then 26), Charles Josh (then 21) and Jason Gedrick (then 27).\n\nRoad trip from 1980: Three buddies have a fateful trip over the bridge from Detroit into Canada, wanting to make a quick fortune transporting drugs over the border in their beat-up Buick.\n\nLook out for David Schwimmer from &quot;Friends&quot;, back then totally unknown, as an untidy pothead in the beginning.\n\nI have never found a torrent for this rare classic anywhere, so I bought the DVD to rip it for you.\n\nWidescreen DVDrip XviD 720x384, great stereo sound AC3.\nRuns well in both my standalone DivX players.\n\nFormat/Info                      : Audio Video Interleave\nFile size                        : 694 MiB\nDuration                         : 1h 43mn\nOveral bit rate                  : 937 Kbps\n\nVideo\nFormat                           : MPEG-4 Visual\nFormat profile                   : Streaming Video@L1\nFormat settings, BVOP            : Yes\nFormat settings, QPel            : No\nFormat settings, GMC             : No warppoints\nFormat settings, Matrix          : Default\nMuxing mode                      : Packet Bitstream\nCodec ID                         : XVID\nCodec ID/Hint                    : XviD\nDuration                         : 1h 43mn\nBit rate                         : 799 Kbps\nWidth                            : 720 pixels\nHeight                           : 384 pixels\nDisplay aspect ratio             : 1.875\nFrame rate                       : 23.976 fps\nResolution                       : 8 bits\nColorimetry                      : 4:2:0\nScan type                        : Progressive\nBits/(Pixel*Frame)               : 0.121\nStream size                      : 592 MiB\nWriting library                  : XviD 1.2.0.dev47 (UTC 2006-11-01)\n\nAudio\nFormat                           : MPEG Audio\nFormat version                   : Version 1\nFormat profile                   : Layer 3\nCodec ID                         : 55\nCodec ID/Hint                    : MP3\nDuration                         : 1h 43mn\nBit rate mode                    : Constant\nBit rate                         : 128 Kbps\nMinimum bit rate                 : 128 Kbps\nChannel(s)                       : 2 channels\nSampling rate                    : 48.0 KHz\nResolution                       : 16 bits\nStream size                      : 94.8 MiB\nWriting library                  : LAME3.97 \nEncoding settings                : CBR\n\nSource: NTSC IVTC retail 5.83 Giga (note that PAL/NTSC will give no problems for avi files)","torrent":{"xt":"urn:btih:85dba7dccfb8a33f9d9b64bef9260050106029dd","amp;dn":"Crossing+the+Bridge+%281992%29+Stephen+Baldwin+%28DVDRip%2C+opt.subs%29","amp;tr":["udp%3A%2F%2Ftracker.openbittorrent.com%3A80","udp%3A%2F%2Fopen.demonii.com%3A1337","udp%3A%2F%2Ftracker.coppersurfer.tk%3A6969","udp%3A%2F%2Fexodus.desync.com%3A6969"],"infoHash":"85dba7dccfb8a33f9d9b64bef9260050106029dd","infoHashBuffer":{"type":"Buffer","data":[133,219,167,220,207,184,163,63,157,155,100,190,249,38,0,80,16,96,41,221]},"announce":[],"urlList":[]}}